<svg width="25" height="24" viewBox="0 0 25 24" fill="none" xmlns="http://www.w3.org/2000/svg">
<path d="M9.04124 22.75H5.00124C2.99124 22.75 2.02124 21.82 2.02124 19.9V4.1C2.02124 2.18 3.00124 1.25 5.00124 1.25H9.04124C11.0512 1.25 12.0212 2.18 12.0212 4.1V19.9C12.0212 21.82 11.0412 22.75 9.04124 22.75ZM5.00124 2.75C3.73124 2.75 3.52124 3.09 3.52124 4.1V19.9C3.52124 20.91 3.73124 21.25 5.00124 21.25H9.04124C10.3112 21.25 10.5212 20.91 10.5212 19.9V4.1C10.5212 3.09 10.3112 2.75 9.04124 2.75H5.00124Z" fill="white"/>
<path d="M20.5412 13.75H16.5012C14.4912 13.75 13.5212 12.82 13.5212 10.9V4.1C13.5212 2.18 14.5012 1.25 16.5012 1.25H20.5412C22.5512 1.25 23.5212 2.18 23.5212 4.1V10.9C23.5212 12.82 22.5412 13.75 20.5412 13.75ZM16.5012 2.75C15.2312 2.75 15.0212 3.09 15.0212 4.1V10.9C15.0212 11.91 15.2312 12.25 16.5012 12.25H20.5412C21.8112 12.25 22.0212 11.91 22.0212 10.9V4.1C22.0212 3.09 21.8112 2.75 20.5412 2.75H16.5012Z" fill="white"/>
<path d="M20.5412 22.75H16.5012C14.4912 22.75 13.5212 21.82 13.5212 19.9V18.1C13.5212 16.18 14.5012 15.25 16.5012 15.25H20.5412C22.5512 15.25 23.5212 16.18 23.5212 18.1V19.9C23.5212 21.82 22.5412 22.75 20.5412 22.75ZM16.5012 16.75C15.2312 16.75 15.0212 17.09 15.0212 18.1V19.9C15.0212 20.91 15.2312 21.25 16.5012 21.25H20.5412C21.8112 21.25 22.0212 20.91 22.0212 19.9V18.1C22.0212 17.09 21.8112 16.75 20.5412 16.75H16.5012Z" fill="white"/>
</svg>
