<svg width="24" height="25" viewBox="0 0 24 25" fill="none" xmlns="http://www.w3.org/2000/svg">
<path d="M15.2386 23.2666H15.1086C10.6686 23.2666 8.52855 21.5166 8.15855 17.5966C8.11855 17.1866 8.41855 16.8166 8.83855 16.7766C9.23855 16.7366 9.61855 17.0466 9.65855 17.4566C9.94855 20.5966 11.4286 21.7666 15.1186 21.7666H15.2486C19.3186 21.7666 20.7586 20.3266 20.7586 16.2566V9.73656C20.7586 5.66656 19.3186 4.22656 15.2486 4.22656H15.1186C11.4086 4.22656 9.92855 5.41656 9.65855 8.61656C9.60855 9.02656 9.25855 9.33656 8.83855 9.29656C8.41855 9.26656 8.11855 8.89656 8.14855 8.48656C8.48855 4.50656 10.6386 2.72656 15.1086 2.72656H15.2386C20.1486 2.72656 22.2486 4.82656 22.2486 9.73656V16.2566C22.2486 21.1666 20.1486 23.2666 15.2386 23.2666Z" fill="white"/>
<path d="M14.9991 13.7466H3.61914C3.20914 13.7466 2.86914 13.4066 2.86914 12.9966C2.86914 12.5866 3.20914 12.2466 3.61914 12.2466H14.9991C15.4091 12.2466 15.7491 12.5866 15.7491 12.9966C15.7491 13.4066 15.4091 13.7466 14.9991 13.7466Z" fill="white"/>
<path d="M5.84945 17.0964C5.65945 17.0964 5.46945 17.0264 5.31945 16.8764L1.96945 13.5264C1.67945 13.2364 1.67945 12.7564 1.96945 12.4664L5.31945 9.11643C5.60945 8.82643 6.08945 8.82643 6.37945 9.11643C6.66945 9.40643 6.66945 9.88643 6.37945 10.1764L3.55945 12.9964L6.37945 15.8164C6.66945 16.1064 6.66945 16.5864 6.37945 16.8764C6.23945 17.0264 6.03945 17.0964 5.84945 17.0964Z" fill="white"/>
</svg>
