<svg width="25" height="25" viewBox="0 0 25 25" fill="none" xmlns="http://www.w3.org/2000/svg">
<path d="M2.27273 4.99258V20.0074C2.27273 21.3819 3.28776 22.5 4.53987 22.5H20.4601C21.7129 22.5 22.7273 21.384 22.7273 20.0074V4.99258C22.7273 3.61814 21.7122 2.5 20.4601 2.5H4.53987C3.28707 2.5 2.27273 3.61596 2.27273 4.99258ZM0 4.99258C0 2.23482 2.03227 0 4.53987 0H20.4601C22.9668 0 25 2.23673 25 4.99258V20.0074C25 22.7652 22.9677 25 20.4601 25H4.53987C2.03321 25 0 22.7633 0 20.0074V4.99258ZM4.84857 12.1226C4.44441 11.6372 4.44441 10.8628 4.84857 10.3774C5.2676 9.8742 5.95897 9.8742 6.378 10.3774L10.2273 15L6.378 19.6226C5.95897 20.1258 5.2676 20.1258 4.84857 19.6226C4.44441 19.1372 4.44441 18.3628 4.84857 17.8774L7.24461 15L4.84857 12.1226ZM11.3636 18.75C11.3636 18.0596 11.8785 17.5 12.4966 17.5H19.3216C19.9473 17.5 20.4545 18.0548 20.4545 18.75C20.4545 19.4404 19.9397 20 19.3216 20H12.4966C11.8709 20 11.3636 19.4452 11.3636 18.75ZM2.27273 5H23.8636V7.5H2.27273V5Z" fill="white"/>
</svg>
