<svg width="25" height="24" viewBox="0 0 25 24" fill="none" xmlns="http://www.w3.org/2000/svg">
<g clip-path="url(#clip0_1126_339)">
<path d="M16.8025 4.2C18.3025 4.2 19.8025 4.8 21.0025 5.9L21.8025 5.1C20.4025 3.7 18.6025 3 16.8025 3C15.0025 3 13.2025 3.7 11.8025 5.1L12.6025 5.9C13.8025 4.8 15.3025 4.2 16.8025 4.2ZM13.5025 6.7L14.3025 7.5C15.0025 6.8 15.9025 6.5 16.8025 6.5C17.7025 6.5 18.6025 6.8 19.3025 7.5L20.1025 6.7C19.2025 5.8 18.0025 5.3 16.8025 5.3C15.6025 5.3 14.4025 5.8 13.5025 6.7V6.7ZM19.8025 13H17.8025V9H15.8025V13H5.80249C4.70249 13 3.80249 13.9 3.80249 15V19C3.80249 20.1 4.70249 21 5.80249 21H19.8025C20.9025 21 21.8025 20.1 21.8025 19V15C21.8025 13.9 20.9025 13 19.8025 13ZM19.8025 19H5.80249V15H19.8025V19ZM6.80249 16H8.80249V18H6.80249V16ZM10.3025 16H12.3025V18H10.3025V16ZM13.8025 16H15.8025V18H13.8025V16Z" fill="#FAFAFA"/>
</g>
<defs>
<clipPath id="clip0_1126_339">
<rect width="24" height="24" fill="white" transform="translate(0.80249)"/>
</clipPath>
</defs>
</svg>
